<mxfile host="app.diagrams.net" agent="Mozilla/5.0 (Windows NT 10.0; Win64; x64) AppleWebKit/537.36 (KHTML, like Gecko) Chrome/127.0.0.0 Safari/537.36 OPR/113.0.0.0" version="24.8.3">
  <diagram id="C5RBs43oDa-KdzZeNtuy" name="Page-1">
    <mxGraphModel dx="839" dy="489" grid="1" gridSize="10" guides="1" tooltips="1" connect="1" arrows="1" fold="1" page="1" pageScale="1" pageWidth="827" pageHeight="1169" math="0" shadow="0">
      <root>
        <mxCell id="WIyWlLk6GJQsqaUBKTNV-0" />
        <mxCell id="WIyWlLk6GJQsqaUBKTNV-1" parent="WIyWlLk6GJQsqaUBKTNV-0" />
        <mxCell id="NMHTdyvkhSiOv5Fqhz7T-2" value="" style="edgeStyle=orthogonalEdgeStyle;rounded=0;orthogonalLoop=1;jettySize=auto;html=1;" edge="1" parent="WIyWlLk6GJQsqaUBKTNV-1" source="NMHTdyvkhSiOv5Fqhz7T-0" target="NMHTdyvkhSiOv5Fqhz7T-1">
          <mxGeometry relative="1" as="geometry" />
        </mxCell>
        <mxCell id="NMHTdyvkhSiOv5Fqhz7T-0" value="configuração das portas" style="rounded=1;whiteSpace=wrap;html=1;" vertex="1" parent="WIyWlLk6GJQsqaUBKTNV-1">
          <mxGeometry x="294" y="90" width="120" height="60" as="geometry" />
        </mxCell>
        <mxCell id="NMHTdyvkhSiOv5Fqhz7T-4" value="" style="edgeStyle=orthogonalEdgeStyle;rounded=0;orthogonalLoop=1;jettySize=auto;html=1;" edge="1" parent="WIyWlLk6GJQsqaUBKTNV-1" source="NMHTdyvkhSiOv5Fqhz7T-1" target="NMHTdyvkhSiOv5Fqhz7T-3">
          <mxGeometry relative="1" as="geometry" />
        </mxCell>
        <mxCell id="NMHTdyvkhSiOv5Fqhz7T-1" value="verificação de eventos&amp;nbsp;" style="whiteSpace=wrap;html=1;rounded=1;" vertex="1" parent="WIyWlLk6GJQsqaUBKTNV-1">
          <mxGeometry x="294" y="170" width="120" height="60" as="geometry" />
        </mxCell>
        <mxCell id="NMHTdyvkhSiOv5Fqhz7T-8" value="" style="edgeStyle=orthogonalEdgeStyle;rounded=0;orthogonalLoop=1;jettySize=auto;html=1;" edge="1" parent="WIyWlLk6GJQsqaUBKTNV-1" source="NMHTdyvkhSiOv5Fqhz7T-3" target="NMHTdyvkhSiOv5Fqhz7T-7">
          <mxGeometry relative="1" as="geometry" />
        </mxCell>
        <mxCell id="NMHTdyvkhSiOv5Fqhz7T-3" value="movimentação de elementos de jogo&amp;nbsp;" style="whiteSpace=wrap;html=1;rounded=1;" vertex="1" parent="WIyWlLk6GJQsqaUBKTNV-1">
          <mxGeometry x="294" y="250" width="120" height="60" as="geometry" />
        </mxCell>
        <mxCell id="NMHTdyvkhSiOv5Fqhz7T-12" value="" style="edgeStyle=orthogonalEdgeStyle;rounded=0;orthogonalLoop=1;jettySize=auto;html=1;" edge="1" parent="WIyWlLk6GJQsqaUBKTNV-1" source="NMHTdyvkhSiOv5Fqhz7T-7" target="NMHTdyvkhSiOv5Fqhz7T-11">
          <mxGeometry relative="1" as="geometry" />
        </mxCell>
        <mxCell id="NMHTdyvkhSiOv5Fqhz7T-7" value="atualizar pontuação" style="whiteSpace=wrap;html=1;rounded=1;" vertex="1" parent="WIyWlLk6GJQsqaUBKTNV-1">
          <mxGeometry x="294" y="330" width="120" height="60" as="geometry" />
        </mxCell>
        <mxCell id="NMHTdyvkhSiOv5Fqhz7T-14" value="" style="edgeStyle=orthogonalEdgeStyle;rounded=0;orthogonalLoop=1;jettySize=auto;html=1;entryX=1;entryY=0.5;entryDx=0;entryDy=0;" edge="1" parent="WIyWlLk6GJQsqaUBKTNV-1" source="NMHTdyvkhSiOv5Fqhz7T-11" target="NMHTdyvkhSiOv5Fqhz7T-1">
          <mxGeometry relative="1" as="geometry">
            <mxPoint x="520" y="200" as="targetPoint" />
            <Array as="points">
              <mxPoint x="440" y="440" />
              <mxPoint x="440" y="200" />
            </Array>
          </mxGeometry>
        </mxCell>
        <mxCell id="NMHTdyvkhSiOv5Fqhz7T-11" value="&lt;div&gt;display dos elementos atualizado&lt;br&gt;&lt;/div&gt;" style="whiteSpace=wrap;html=1;rounded=1;" vertex="1" parent="WIyWlLk6GJQsqaUBKTNV-1">
          <mxGeometry x="294" y="410" width="120" height="60" as="geometry" />
        </mxCell>
        <mxCell id="NMHTdyvkhSiOv5Fqhz7T-18" value="" style="edgeStyle=orthogonalEdgeStyle;rounded=0;orthogonalLoop=1;jettySize=auto;html=1;" edge="1" parent="WIyWlLk6GJQsqaUBKTNV-1" source="NMHTdyvkhSiOv5Fqhz7T-16" target="NMHTdyvkhSiOv5Fqhz7T-17">
          <mxGeometry relative="1" as="geometry" />
        </mxCell>
        <mxCell id="NMHTdyvkhSiOv5Fqhz7T-16" value="verificar inputs" style="rounded=1;whiteSpace=wrap;html=1;" vertex="1" parent="WIyWlLk6GJQsqaUBKTNV-1">
          <mxGeometry x="450" y="230" width="120" height="60" as="geometry" />
        </mxCell>
        <mxCell id="NMHTdyvkhSiOv5Fqhz7T-19" value="" style="edgeStyle=orthogonalEdgeStyle;rounded=0;orthogonalLoop=1;jettySize=auto;html=1;entryX=1;entryY=0.5;entryDx=0;entryDy=0;" edge="1" parent="WIyWlLk6GJQsqaUBKTNV-1" source="NMHTdyvkhSiOv5Fqhz7T-17" target="NMHTdyvkhSiOv5Fqhz7T-16">
          <mxGeometry relative="1" as="geometry">
            <mxPoint x="620" y="290" as="targetPoint" />
            <Array as="points">
              <mxPoint x="620" y="340" />
              <mxPoint x="620" y="260" />
            </Array>
          </mxGeometry>
        </mxCell>
        <mxCell id="NMHTdyvkhSiOv5Fqhz7T-17" value="ativar eventos conforme inputs" style="whiteSpace=wrap;html=1;rounded=1;" vertex="1" parent="WIyWlLk6GJQsqaUBKTNV-1">
          <mxGeometry x="450" y="310" width="120" height="60" as="geometry" />
        </mxCell>
      </root>
    </mxGraphModel>
  </diagram>
</mxfile>
